<svg width="16" height="16" viewBox="0 0 16 16" fill="none" xmlns="http://www.w3.org/2000/svg">
	
  <symbol id="logotype" width="72" height="21" viewBox="0 0 72 21">
    <rect id="Logo" width="16.000000" height="16.000000" transform="translate(0.000000 2.500000)" fill="#FFFFFF" fill-opacity="0"/>
    <path id="Union" d="M8 2.5L16 2.5L16 14.5L8 14.5L8 10.5L12 10.5L12 6.5L8 6.5L8 2.5ZM0 6.5L8 6.5L8 10.5L4 10.5L4 14.5L8 14.5L8 18.5L0 18.5L0 6.5Z" clip-rule="evenodd" fill="#FFFFFF" fill-opacity="1.000000" fill-rule="evenodd"/>
    <path id="Elias" d="M49.0435 3.308C48.7662 3.036 48.4088 2.9 47.9715 2.9Q47.4992 2.9 47.1484 3.10638Q47.0059 3.19018 46.8835 3.308C46.6062 3.58 46.4675 3.91867 46.4675 4.324Q46.4675 4.66211 46.5961 4.94084Q46.6988 5.16334 46.8835 5.348C47.1662 5.62 47.5288 5.756 47.9715 5.756C48.4088 5.756 48.7662 5.62 49.0435 5.348Q49.2282 5.16334 49.3309 4.94084Q49.4595 4.66211 49.4595 4.324C49.4595 3.91867 49.3208 3.58 49.0435 3.308ZM39.1458 13.172L39.1458 3.972L34.1138 3.972L34.1138 5.7L36.6178 5.7L36.6178 12.86Q36.6178 14.348 37.3377 15.236Q37.4312 15.3502 37.5383 15.4496Q38.257 16.116 39.5938 16.116Q40.4017 16.116 41.0098 15.948C41.4151 15.836 41.7617 15.7053 42.0498 15.556L41.4417 13.868C41.2658 13.9373 41.0764 13.9987 40.8737 14.052C40.6711 14.1 40.4604 14.124 40.2418 14.124Q39.7298 14.124 39.4338 13.908C39.2418 13.7587 39.1458 13.5133 39.1458 13.172ZM28.112 9.292L28.112 6.628L32.472 6.628L32.736 4.756L25.488 4.756L25.488 15.844L32.744 15.844L32.744 13.964L28.112 13.964L28.112 11.132L31.952 11.132L31.952 9.292L28.112 9.292ZM61.1813 14.092C61.0959 13.948 61.0532 13.716 61.0532 13.396L61.0532 10.068C61.0532 9.09733 60.7493 8.356 60.1413 7.844C59.5386 7.32667 58.6053 7.068 57.3413 7.068C56.8719 7.068 56.3386 7.12133 55.7412 7.228C55.1493 7.33467 54.5786 7.492 54.0293 7.7L54.6133 9.38C55.0399 9.236 55.4666 9.12667 55.8932 9.052C56.3199 8.972 56.6693 8.932 56.9412 8.932Q57.7653 8.932 58.1893 9.252C58.4772 9.46533 58.6213 9.79333 58.6213 10.236L58.6213 10.556L57.4772 10.556C56.1652 10.556 55.1466 10.8067 54.4212 11.308Q53.9445 11.6399 53.6783 12.095Q53.3412 12.6709 53.3412 13.444Q53.3412 14.1939 53.6568 14.7714Q53.8361 15.0995 54.1172 15.372C54.6399 15.868 55.3386 16.116 56.2132 16.116C56.7412 16.116 57.2586 16.0227 57.7653 15.836Q58.3365 15.6195 58.7541 15.2358Q58.8921 15.109 59.0133 14.964Q59.2052 15.3064 59.488 15.5378Q59.6413 15.6632 59.8213 15.756C60.1679 15.9267 60.5919 16.036 61.0933 16.084L61.6133 14.42C61.4159 14.3453 61.2719 14.236 61.1813 14.092ZM67.919 14.108C67.663 14.2413 67.3243 14.308 66.903 14.308C66.407 14.308 65.9483 14.2227 65.527 14.052C65.111 13.8813 64.7377 13.668 64.407 13.412L63.135 14.836C63.5777 15.22 64.1137 15.5293 64.743 15.764C65.3723 15.9987 66.0977 16.116 66.919 16.116C67.6443 16.116 68.311 16.012 68.919 15.804C69.527 15.596 70.015 15.284 70.383 14.868C70.751 14.4467 70.935 13.9267 70.935 13.308C70.935 12.7533 70.823 12.308 70.599 11.972Q70.5647 11.9197 70.5275 11.8697Q70.2001 11.429 69.647 11.156Q69.039 10.852 68.215 10.62Q67.383 10.38 66.951 10.22C66.663 10.108 66.4657 10.0013 66.359 9.9C66.2577 9.79333 66.207 9.668 66.207 9.524C66.207 9.30533 66.3057 9.14267 66.503 9.036Q66.807 8.868 67.423 8.868C67.8337 8.868 68.2417 8.93467 68.647 9.068C69.0523 9.196 69.431 9.36933 69.783 9.588L70.791 8.1C70.3803 7.80133 69.8923 7.556 69.327 7.364C68.767 7.16667 68.1083 7.068 67.351 7.068Q66.159 7.068 65.335 7.412C64.7857 7.636 64.3697 7.94533 64.087 8.34C63.8043 8.73467 63.663 9.18533 63.663 9.692Q63.663 10.444 63.991 10.948C64.215 11.284 64.5243 11.5587 64.919 11.772C65.319 11.9853 65.7777 12.1613 66.295 12.3C66.8603 12.4547 67.287 12.588 67.575 12.7C67.863 12.812 68.0577 12.9293 68.159 13.052C68.2603 13.1747 68.311 13.3267 68.311 13.508C68.311 13.7747 68.1803 13.9747 67.919 14.108ZM49.4995 14.116L49.4995 7.348L44.6435 7.348L44.6435 9.076L46.9715 9.076L46.9715 14.116L44.5635 14.116L44.5635 15.844L51.6595 15.844L51.6595 14.116L49.4995 14.116ZM57.9412 14.068C57.6426 14.228 57.3573 14.308 57.0853 14.308C56.7279 14.308 56.4479 14.2173 56.2453 14.036C56.0479 13.8493 55.9492 13.5933 55.9492 13.268C55.9492 12.852 56.1146 12.5373 56.4453 12.324C56.7759 12.1053 57.2933 11.996 57.9972 11.996L58.6213 11.996L58.6213 13.372C58.4666 13.6707 58.2399 13.9027 57.9412 14.068Z" fill="#FFFFFF" fill-opacity="1.000000" fill-rule="evenodd"/>
  </symbol>

  <symbol id="logotypeBg" viewBox="0 0 156 156" width="156" height="156">
    <mask id="path-1-inside-1_1103_3692" fill="white">
     <path fill-rule="evenodd" clip-rule="evenodd" d="M0 39.75H38.75H77.5V78.5H38.75V117.25H77.5V156H38.75H0V117.25V78.5V39.75Z"/>
    </mask>
    <path d="M0 39.75V38.75H-1V39.75H0ZM77.5 39.75H78.5V38.75H77.5V39.75ZM77.5 78.5V79.5H78.5V78.5H77.5ZM38.75 78.5V77.5H37.75V78.5H38.75ZM38.75 117.25H37.75V118.25H38.75V117.25ZM77.5 117.25H78.5V116.25H77.5V117.25ZM77.5 156V157H78.5V156H77.5ZM0 156H-1V157H0V156ZM38.75 38.75H0V40.75H38.75V38.75ZM77.5 38.75H38.75V40.75H77.5V38.75ZM78.5 78.5V39.75H76.5V78.5H78.5ZM38.75 79.5H77.5V77.5H38.75V79.5ZM39.75 117.25V78.5H37.75V117.25H39.75ZM38.75 118.25H77.5V116.25H38.75V118.25ZM76.5 117.25V156H78.5V117.25H76.5ZM77.5 155H38.75V157H77.5V155ZM0 157H38.75V155H0V157ZM-1 117.25V156H1V117.25H-1ZM-1 78.5V117.25H1V78.5H-1ZM-1 39.75V78.5H1V39.75H-1Z" fill="#C778DD" mask="url(#path-1-inside-1_1103_3692)"/>
    <mask id="path-3-outside-2_1103_3692" maskUnits="userSpaceOnUse" x="76.5" y="0" width="80" height="119" fill="black">
      <rect fill="white" x="76.5" width="80" height="119"/>
      <path fill-rule="evenodd" clip-rule="evenodd" d="M77.5 1H116.25H155V39.75V78.5V117.25H116.25H77.5V78.5H116.25V39.75H77.5V1Z"/>
    </mask>
    <path d="M77.5 1V0H76.5V1H77.5ZM155 1H156V0H155V1ZM155 117.25V118.25H156V117.25H155ZM77.5 117.25H76.5V118.25H77.5V117.25ZM77.5 78.5V77.5H76.5V78.5H77.5ZM116.25 78.5V79.5H117.25V78.5H116.25ZM116.25 39.75H117.25V38.75H116.25V39.75ZM77.5 39.75H76.5V40.75H77.5V39.75ZM116.25 0H77.5V2H116.25V0ZM155 0H116.25V2H155V0ZM156 39.75V1H154V39.75H156ZM156 78.5V39.75H154V78.5H156ZM156 117.25V78.5H154V117.25H156ZM116.25 118.25H155V116.25H116.25V118.25ZM116.25 116.25H77.5V118.25H116.25V116.25ZM78.5 117.25V78.5H76.5V117.25H78.5ZM77.5 79.5H116.25V77.5H77.5V79.5ZM115.25 39.75V78.5H117.25V39.75H115.25ZM77.5 40.75H116.25V38.75H77.5V40.75ZM76.5 1V39.75H78.5V1H76.5Z" fill="#C778DD" mask="url(#path-3-outside-2_1103_3692)"/>
  </symbol>

  <symbol id="dots" width="84" height="84" viewBox="0 0 84 84" fill="none">
    <g id="line1">
      <circle id="Ellipse 23" cx="2.000000" cy="2.000000" r="2.000000" fill="#ABB2BF" fill-opacity="1.000000"/>
      <circle id="Ellipse 21" cx="22.000000" cy="2.000000" r="2.000000" fill="#ABB2BF" fill-opacity="1.000000"/>
      <circle id="Ellipse 22" cx="42.000000" cy="2.000000" r="2.000000" fill="#ABB2BF" fill-opacity="1.000000"/>
      <circle id="Ellipse 20" cx="62.000000" cy="2.000000" r="2.000000" fill="#ABB2BF" fill-opacity="1.000000"/>
      <circle id="Ellipse 36" cx="82.000000" cy="2.000000" r="2.000000" fill="#ABB2BF" fill-opacity="1.000000"/>
    </g>

    <g id="line2">
      <circle id="Ellipse 25" cx="2.000000" cy="22.000000" r="2.000000" fill="#ABB2BF" fill-opacity="1.000000"/>
      <circle id="Ellipse 26" cx="22.000000" cy="22.000000" r="2.000000" fill="#ABB2BF" fill-opacity="1.000000"/>
      <circle id="Ellipse 24" cx="42.000000" cy="22.000000" r="2.000000" fill="#ABB2BF" fill-opacity="1.000000"/>
      <circle id="Ellipse 19" cx="62.000000" cy="22.000000" r="2.000000" fill="#ABB2BF" fill-opacity="1.000000"/>
      <circle id="Ellipse 36" cx="82.000000" cy="22.000000" r="2.000000" fill="#ABB2BF" fill-opacity="1.000000"/>
    </g>
    <g id="line3">
      <circle id="Ellipse 29" cx="2.000000" cy="42.000000" r="2.000000" fill="#ABB2BF" fill-opacity="1.000000"/>
      <circle id="Ellipse 30" cx="22.000000" cy="42.000000" r="2.000000" fill="#ABB2BF" fill-opacity="1.000000"/>
      <circle id="Ellipse 28" cx="42.000000" cy="42.000000" r="2.000000" fill="#ABB2BF" fill-opacity="1.000000"/>
      <circle id="Ellipse 19" cx="62.000000" cy="42.000000" r="2.000000" fill="#ABB2BF" fill-opacity="1.000000"/>
      <circle id="Ellipse 36" cx="82.000000" cy="42.000000" r="2.000000" fill="#ABB2BF" fill-opacity="1.000000"/>
    </g>
    <g id="line4">
      <circle id="Ellipse 33" cx="2.000000" cy="62.000000" r="2.000000" fill="#ABB2BF" fill-opacity="1.000000"/>
      <circle id="Ellipse 34" cx="22.000000" cy="62.000000" r="2.000000" fill="#ABB2BF" fill-opacity="1.000000"/>
      <circle id="Ellipse 32" cx="42.000000" cy="62.000000" r="2.000000" fill="#ABB2BF" fill-opacity="1.000000"/>
      <circle id="Ellipse 19" cx="62.000000" cy="62.000000" r="2.000000" fill="#ABB2BF" fill-opacity="1.000000"/>
      <circle id="Ellipse 36" cx="82.000000" cy="62.000000" r="2.000000" fill="#ABB2BF" fill-opacity="1.000000"/>
    </g>
    <g id="line5">
      <circle id="Ellipse 33" cx="2.000000" cy="82.000000" r="2.000000" fill="#ABB2BF" fill-opacity="1.000000"/>
      <circle id="Ellipse 34" cx="22.000000" cy="82.000000" r="2.000000" fill="#ABB2BF" fill-opacity="1.000000"/>
      <circle id="Ellipse 32" cx="42.000000" cy="82.000000" r="2.000000" fill="#ABB2BF" fill-opacity="1.000000"/>
      <circle id="Ellipse 19" cx="62.000000" cy="82.000000" r="2.000000" fill="#ABB2BF" fill-opacity="1.000000"/>
      <circle id="Ellipse 36" cx="82.000000" cy="82.000000" r="2.000000" fill="#ABB2BF" fill-opacity="1.000000"/>
    </g>
  </symbol>


  <symbol id="location" viewBox="0 0 32 32">
      <path d="M16.5 28C16.5 28 26 19.1156 26 12.375C26 9.88855 24.999 7.50403 23.2175 5.74585C21.436 3.98767 19.0195 3 16.5 3C13.9805 3 11.564 3.98767 9.78247 5.74585C8.00098 7.50403 7 9.88855 7 12.375C7 19.1156 16.5 28 16.5 28ZM16.5 17.0625C15.2402 17.0625 14.032 16.5686 13.1414 15.6896C12.2505 14.8105 11.75 13.6182 11.75 12.375C11.75 11.1318 12.2505 9.93945 13.1414 9.06042C14.032 8.1814 15.2402 7.6875 16.5 7.6875C17.7598 7.6875 18.968 8.1814 19.8586 9.06042C20.7495 9.93945 21.25 11.1318 21.25 12.375C21.25 13.6182 20.7495 14.8105 19.8586 15.6896C18.968 16.5686 17.7598 17.0625 16.5 17.0625Z" fill="#ABB2BF" fill-opacity="1.000000" fill-rule="nonzero"/>
  </symbol>

  <symbol id="github" viewBox="0 0 32 32">
      <path d="M15.5 6C9.69873 6 5 10.5881 5 16.2529C5 20.7899 8.00562 24.6219 12.1794 25.9805C12.7043 26.0701 12.9014 25.7626 12.9014 25.4934C12.9014 25.2499 12.8882 24.4425 12.8882 23.5837C10.25 24.058 9.56738 22.9558 9.35742 22.379C9.23926 22.0844 8.72754 21.1743 8.28125 20.9308C7.91382 20.7386 7.38867 20.2644 8.26807 20.2516C9.09497 20.2388 9.68555 20.9949 9.88257 21.3025C10.8274 22.8533 12.3369 22.4175 12.9407 22.1484C13.0325 21.4819 13.3081 21.0333 13.6101 20.7771C11.2737 20.5208 8.83252 19.6364 8.83252 15.7146C8.83252 14.5996 9.23926 13.6769 9.90869 12.9592C9.80371 12.7029 9.43628 11.652 10.0137 10.2422C10.0137 10.2422 10.8931 9.97302 12.9014 11.2931C13.7412 11.0624 14.6338 10.947 15.5264 10.947C16.4187 10.947 17.3113 11.0624 18.1514 11.2931C20.1594 9.96021 21.0388 10.2422 21.0388 10.2422C21.6162 11.652 21.2488 12.7029 21.1438 12.9592C21.8132 13.6769 22.22 14.5868 22.22 15.7146C22.22 19.6492 19.7656 20.5208 17.4294 20.7771C17.8101 21.0974 18.1382 21.7126 18.1382 22.6738C18.1382 24.0452 18.125 25.1473 18.125 25.4934C18.125 25.7626 18.3218 26.0829 18.8469 25.9805C20.9314 25.2935 22.7429 23.9854 24.0261 22.2404C25.3093 20.4954 25.9995 18.4012 26 16.2529C26 10.5881 21.3013 6 15.5 6Z" fill="#ABB2BF" fill-opacity="1.000000" fill-rule="nonzero"/>
  </symbol>

  <symbol id="twitter" viewBox="0 0 32 32">
      <path d="M11.2249 26C19.9045 26 24.6526 18.6884 24.6526 12.3588C24.6526 12.1542 24.6526 11.9467 24.644 11.7419C25.5684 11.0616 26.3662 10.2194 27 9.25464C26.1365 9.6416 25.2214 9.89673 24.2847 10.0116C25.2715 9.41187 26.0105 8.46826 26.3647 7.3562C25.4375 7.91455 24.4226 8.30664 23.3645 8.51514C22.6533 7.74487 21.7119 7.23474 20.6865 7.06348C19.6611 6.89233 18.6089 7.06958 17.6926 7.56799C16.7764 8.06641 16.0474 8.85803 15.6184 9.82031C15.1897 10.7825 15.0847 11.8617 15.3203 12.8907C13.4441 12.795 11.6084 12.2994 9.93262 11.4362C8.25684 10.5729 6.77832 9.36108 5.59277 7.87939C4.99097 8.93616 4.80737 10.1862 5.0791 11.3756C5.35083 12.5649 6.05762 13.6046 7.05615 14.2834C6.30786 14.2576 5.57617 14.0533 4.91992 13.6873L4.91992 13.7529C4.92139 14.86 5.29858 15.9326 5.98779 16.7896C6.67725 17.6465 7.63647 18.2351 8.70361 18.4559C8.29858 18.5693 7.88013 18.626 7.45996 18.624C7.16382 18.6249 6.86841 18.597 6.57739 18.5406C6.87891 19.4937 7.46631 20.3269 8.25684 20.9236C9.04736 21.5203 10.0017 21.8507 10.9863 21.8684C9.31372 23.204 7.2478 23.9282 5.12134 23.9247C4.74658 23.9264 4.37207 23.9044 4 23.859C6.15845 25.2579 8.66504 26.0009 11.2249 26Z" fill="#ABB2BF" fill-opacity="1.000000" fill-rule="nonzero"/>
  </symbol>

  <symbol id="linkedin" viewBox="0 0 32 32">
      <path d="M4 5.71899C4 4.76953 4.78906 4 5.76245 4L26.2375 4C27.2109 4 28 4.76953 28 5.71899L28 26.281C28 27.2305 27.2109 28 26.2375 28L5.76245 28C4.78906 28 4 27.2305 4 26.281L4 5.71899ZM11.4146 24.0909L11.4146 13.2535L7.81299 13.2535L7.81299 24.0909L11.4146 24.0909ZM9.6145 11.7729C10.8701 11.7729 11.6516 10.942 11.6516 9.901C11.6289 8.83752 10.8716 8.02905 9.63843 8.02905C8.40552 8.02905 7.6001 8.83899 7.6001 9.901C7.6001 10.942 8.38159 11.7729 9.59058 11.7729L9.6145 11.7729ZM16.9766 24.0909L16.9766 18.0385C16.9766 17.7145 17.0005 17.3905 17.0964 17.1595C17.356 16.5129 17.9485 15.8425 18.9446 15.8425C20.248 15.8425 20.7686 16.8354 20.7686 18.2935L20.7686 24.0909L24.3701 24.0909L24.3701 17.875C24.3701 14.545 22.594 12.9969 20.2241 12.9969C18.313 12.9969 17.4565 14.047 16.9766 14.7865L16.9766 14.824L16.9524 14.824C16.9604 14.8115 16.9685 14.799 16.9766 14.7865L16.9766 13.2535L13.3765 13.2535C13.4214 14.2705 13.3765 24.0909 13.3765 24.0909L16.9766 24.0909Z" fill="#ABB2BF" fill-opacity="1.000000" fill-rule="nonzero"/>
  </symbol>

  <symbol id="discord" viewBox="0 0 32 32">
      <path d="M24.1641 7.65906C22.543 6.8783 20.8325 6.32104 19.0752 6.0011C19.0591 5.99829 19.0427 6.00073 19.0283 6.00806C19.0137 6.01538 19.0017 6.02734 18.9939 6.04211C18.7734 6.45215 18.5298 6.9884 18.3594 7.4082C16.4651 7.10645 14.5383 7.10645 12.6438 7.4082C12.4539 6.94055 12.239 6.48438 12.0002 6.04211C11.9922 6.02747 11.98 6.01575 11.9656 6.00842C11.9512 6.0011 11.9348 5.99854 11.9189 6.0011C10.1611 6.31934 8.4502 6.87683 6.82983 7.65906C6.81616 7.66455 6.80444 7.67505 6.79712 7.6886C3.5564 12.7705 2.66748 17.7279 3.10327 22.6229C3.10498 22.6459 3.1189 22.6689 3.13623 22.6836C5.02319 24.1508 7.13403 25.2708 9.37842 25.9962C9.39429 26.0015 9.41113 26.0012 9.427 25.9956C9.44263 25.99 9.4563 25.9794 9.46582 25.9651C9.94702 25.2762 10.3752 24.5498 10.7439 23.7856C10.7517 23.7699 10.7542 23.752 10.7515 23.7345C10.7485 23.717 10.7405 23.701 10.7283 23.6888C10.7202 23.6809 10.7107 23.6747 10.7002 23.6709C10.0271 23.3993 9.375 23.0731 8.75024 22.6951C8.73267 22.6847 8.71973 22.6677 8.71387 22.6476C8.70825 22.6274 8.70996 22.6057 8.71899 22.5869C8.72437 22.5747 8.73242 22.564 8.74243 22.5558C8.87354 22.4524 9.00488 22.3442 9.12988 22.236C9.14087 22.2267 9.1543 22.2207 9.16821 22.2186C9.18237 22.2166 9.19653 22.2186 9.20947 22.2245C13.3018 24.1858 17.7314 24.1858 21.7734 22.2245C21.7871 22.2184 21.8018 22.2162 21.8164 22.2181C21.8311 22.2202 21.8447 22.2263 21.8562 22.236C21.9812 22.3442 22.1125 22.4524 22.2439 22.5558C22.2544 22.5638 22.2629 22.5747 22.2686 22.5872C22.2744 22.5996 22.2771 22.6134 22.2764 22.6272C22.2759 22.641 22.272 22.6544 22.2651 22.6663C22.2583 22.6781 22.2488 22.688 22.2375 22.6951C21.6143 23.0765 20.9614 23.4023 20.2861 23.6692C20.2751 23.6733 20.2654 23.6798 20.2573 23.6884C20.2493 23.6968 20.2432 23.7072 20.2393 23.7184C20.2356 23.7294 20.2341 23.741 20.2349 23.7526C20.2356 23.764 20.2388 23.7754 20.2439 23.7856C20.6189 24.5482 21.0486 25.2762 21.5203 25.9651C21.53 25.9794 21.5435 25.99 21.5593 25.9956C21.575 26.0012 21.592 26.0015 21.6079 25.9962C23.856 25.2731 25.9702 24.1528 27.8594 22.6836C27.8689 22.6768 27.8767 22.6677 27.8823 22.6572C27.8882 22.6467 27.8914 22.635 27.8921 22.6229C28.4141 16.9637 27.0188 12.0474 24.1953 7.69019C24.1926 7.68298 24.1882 7.67651 24.1829 7.67114C24.1775 7.66577 24.1711 7.66162 24.1641 7.65906ZM11.355 19.6417C10.1221 19.6417 9.10791 18.4543 9.10791 16.9982C9.10791 15.5403 10.1033 14.353 11.355 14.353C12.6157 14.353 13.6204 15.5502 13.6018 16.9982C13.6018 18.4543 12.6064 19.6417 11.355 19.6417ZM19.6611 19.6417C18.4297 19.6417 17.4141 18.4543 17.4141 16.9982C17.4141 15.5403 18.4094 14.353 19.6611 14.353C20.9219 14.353 21.9282 15.5502 21.908 16.9982C21.908 18.4543 20.9219 19.6417 19.6611 19.6417Z" fill="#ABB2BF" fill-opacity="1.000000" fill-rule="nonzero"/>
  </symbol>

  <symbol id="telegram" viewBox="0 0 32 32">
      <path d="M27 15.5C27 18.55 25.7883 21.4751 23.6318 23.6317C21.4751 25.7885 18.55 27 15.5 27C12.45 27 9.5249 25.7885 7.36816 23.6317C5.21167 21.4751 4 18.55 4 15.5C4 12.45 5.21167 9.5249 7.36816 7.36829C9.5249 5.21155 12.45 4 15.5 4C18.55 4 21.4751 5.21155 23.6318 7.36829C25.7883 9.5249 27 12.45 27 15.5ZM15.9126 12.4899C14.7942 12.9556 12.5574 13.9187 9.20508 15.3793C8.66187 15.5948 8.37573 15.8076 8.34985 16.0146C8.30664 16.3639 8.74512 16.502 9.3418 16.6903L9.59326 16.7693C10.1799 16.9604 10.9705 17.1833 11.3801 17.1919C11.7539 17.2006 12.1694 17.0482 12.6279 16.7319C15.7603 14.6174 17.3774 13.5493 17.478 13.5264C17.5498 13.509 17.6504 13.4889 17.7166 13.5493C17.7842 13.6083 17.7771 13.7218 17.7698 13.752C17.7268 13.9374 16.0061 15.5359 15.1162 16.3639C14.8389 16.6227 14.6418 16.8053 14.6016 16.8469C14.5129 16.9375 14.4229 17.0266 14.3313 17.1143C13.7852 17.6404 13.3767 18.0343 14.3528 18.6783C14.823 18.9888 15.1995 19.2433 15.5747 19.4991C15.9829 19.778 16.3914 20.0554 16.9202 20.4033C17.054 20.4895 17.1833 20.583 17.3083 20.6721C17.7842 21.0114 18.2141 21.3162 18.7415 21.2672C19.0491 21.2385 19.3669 20.951 19.5278 20.0885C19.9087 18.0515 20.6577 13.6399 20.8303 11.8214C20.8408 11.6703 20.8345 11.5184 20.8115 11.3687C20.7981 11.2478 20.7395 11.1364 20.6477 11.0566C20.5168 10.9664 20.3608 10.9197 20.2021 10.923C19.7708 10.9302 19.1052 11.1616 15.9126 12.4899Z" fill="#ABB2BF" fill-opacity="1.000000" fill-rule="nonzero"/>
  </symbol>

  <symbol id="email" viewBox="0 0 32 32">
      <path d="M5.07178 9.20288C5.2168 8.57715 5.573 8.01831 6.08228 7.61816C6.59155 7.2179 7.22363 7 7.875 7L25.125 7C25.7764 7 26.4084 7.2179 26.9177 7.61816C27.427 8.01831 27.7832 8.57715 27.9282 9.20288L16.5 16.0865L5.07178 9.20288ZM5 10.8208L5 20.8848L13.3418 15.8442L5 10.8208ZM14.719 16.6758L5.27466 22.3807C5.50781 22.8656 5.87622 23.2753 6.33667 23.5619C6.79688 23.8486 7.33032 24.0005 7.875 24L25.125 24C25.6694 24.0001 26.2029 23.8479 26.6628 23.5609C27.123 23.274 27.491 22.8643 27.7241 22.3793L18.2795 16.6744L16.5 17.7468L14.719 16.6744L14.719 16.6758ZM19.6582 15.8457L28 20.8848L28 10.8208L19.6582 15.8442L19.6582 15.8457Z" fill="#ABB2BF" fill-opacity="1.000000" fill-rule="nonzero"/>
  </symbol>

  <symbol id="figma" viewBox="0 0 32 32">
      <path d="M16 16C16 15.116 16.3687 14.2681 17.0251 13.6429C17.6814 13.0178 18.5718 12.6666 19.5 12.6666C20.4282 12.6666 21.3186 13.0178 21.9749 13.6429C22.6313 14.2681 23 15.116 23 16C23 16.884 22.6313 17.7319 21.9749 18.3571C21.3186 18.9822 20.4282 19.3334 19.5 19.3334C18.5718 19.3334 17.6814 18.9822 17.0251 18.3571C16.3687 17.7319 16 16.884 16 16ZM9 22.6666C9 21.7826 9.36865 20.9348 10.0251 20.3097C10.6814 19.6846 11.5718 19.3334 12.5 19.3334L16 19.3334L16 22.6666C16 23.5508 15.6313 24.3986 14.9749 25.0237C14.3186 25.6488 13.4282 26 12.5 26C11.5718 26 10.6814 25.6488 10.0251 25.0237C9.36865 24.3986 9 23.5508 9 22.6666ZM16 6L16 12.6666L19.5 12.6666C20.4282 12.6666 21.3186 12.3154 21.9749 11.6903C22.6313 11.0652 23 10.2174 23 9.33337C23 8.44922 22.6313 7.60144 21.9749 6.97632C21.3186 6.3512 20.4282 6 19.5 6L16 6ZM9 9.33337C9 10.2174 9.36865 11.0652 10.0251 11.6903C10.6814 12.3154 11.5718 12.6666 12.5 12.6666L16 12.6666L16 6L12.5 6C11.5718 6 10.6814 6.3512 10.0251 6.97632C9.36865 7.60144 9 8.44922 9 9.33337ZM9 16C9 16.884 9.36865 17.7319 10.0251 18.3571C10.6814 18.9822 11.5718 19.3334 12.5 19.3334L16 19.3334L16 12.6666L12.5 12.6666C11.5718 12.6666 10.6814 13.0178 10.0251 13.6429C9.36865 14.2681 9 15.116 9 16Z" fill="#ABB2BF" fill-opacity="1.000000" fill-rule="nonzero"/>
  </symbol>

  <symbol id="dribble" viewBox="0 0 32 32">
      <path d="M16.5 4C10.152 4 5 9.15198 5 15.5C5 21.848 10.152 27 16.5 27C22.8365 27 28 21.848 28 15.5C28 9.15198 22.8365 4 16.5 4ZM24.0957 9.30151C25.5115 11.0255 26.2952 13.1816 26.3167 15.4124C25.9918 15.3505 22.7488 14.6892 19.4813 15.1003C19.4066 14.9393 19.3434 14.764 19.2687 14.5901C19.0688 14.1157 18.8446 13.6298 18.6204 13.167C22.2371 11.6964 23.8844 9.57605 24.0972 9.30005L24.0957 9.30151ZM16.5 5.69629C18.994 5.69629 21.2769 6.63062 23.0118 8.16589C22.8365 8.41602 21.3516 10.3983 17.8599 11.7079C16.2499 8.75232 14.4674 6.33167 14.1929 5.95789C14.9491 5.78125 15.7234 5.69348 16.5 5.69629ZM12.3212 6.61914C13.6375 8.44336 14.8535 10.3379 15.9639 12.2944C11.3739 13.5162 7.32007 13.4918 6.88318 13.4918C7.19922 12.005 7.85437 10.6113 8.79761 9.41943C9.74097 8.22766 10.9468 7.26978 12.3212 6.62061L12.3212 6.61914ZM6.67175 15.5144L6.67175 15.2125C7.09583 15.2269 11.8612 15.2887 16.7631 13.8167C17.0491 14.3644 17.3108 14.9264 17.5609 15.4871L17.1727 15.5992C12.1099 17.2336 9.41602 21.6985 9.19031 22.0737C7.5686 20.2733 6.67126 17.936 6.67175 15.5129L6.67175 15.5144ZM16.5 25.3282C14.3173 25.3315 12.1964 24.6028 10.4769 23.2582C10.6494 22.896 12.6461 19.0549 18.1833 17.1215C18.2092 17.1085 18.2207 17.1085 18.2466 17.097C19.1801 19.5068 19.8813 22.0002 20.3409 24.5433C19.1277 25.0647 17.8206 25.3318 16.5 25.3282ZM21.9769 23.6449C21.8762 23.0454 21.3516 20.1776 20.0679 16.6471C23.1484 16.1613 25.8423 16.9591 26.1787 17.0712C25.9691 18.3975 25.4877 19.6661 24.7643 20.7975C24.0409 21.9287 23.0914 22.8982 21.9755 23.6449L21.9769 23.6449Z" fill="#ABB2BF" fill-opacity="1.000000" fill-rule="evenodd"/>
  </symbol>

  <symbol id="card" viewBox="0 0 32 32">
      <path d="M5 10.6666C5 9.95947 5.28967 9.28113 5.80542 8.78101C6.32117 8.28101 7.02063 8 7.75 8L24.25 8C24.9794 8 25.6788 8.28101 26.1946 8.78101C26.7103 9.28113 27 9.95947 27 10.6666L27 17.3334L5 17.3334L5 10.6666ZM20.8125 12C20.6301 12 20.4553 12.0702 20.3264 12.1953C20.1974 12.3203 20.125 12.4899 20.125 12.6666L20.125 14C20.125 14.1768 20.1974 14.3464 20.3264 14.4714C20.4553 14.5964 20.6301 14.6666 20.8125 14.6666L23.5625 14.6666C23.7449 14.6666 23.9197 14.5964 24.0486 14.4714C24.1776 14.3464 24.25 14.1768 24.25 14L24.25 12.6666C24.25 12.4899 24.1776 12.3203 24.0486 12.1953C23.9197 12.0702 23.7449 12 23.5625 12L20.8125 12ZM5 20L5 21.3334C5 22.0405 5.28967 22.7189 5.80542 23.219C6.32117 23.719 7.02063 24 7.75 24L24.25 24C24.9794 24 25.6788 23.719 26.1946 23.219C26.7103 22.7189 27 22.0405 27 21.3334L27 20L5 20Z" fill="#ABB2BF" fill-opacity="1.000000" fill-rule="nonzero"/>
  </symbol>

  <symbol id="bitcoin" viewBox="0 0 32 32">
      <path d="M12.1323 25.2307L12.1323 27.5385C12.1323 27.7932 12.3383 28 12.5919 28L14.4302 28C14.552 28 14.6689 27.9514 14.7551 27.8649C14.8413 27.7783 14.8896 27.6609 14.8896 27.5385L14.8896 25.2307L15.8088 25.2307L15.8088 27.5385C15.8088 27.7932 16.0146 28 16.2684 28L18.1066 28C18.2285 28 18.3453 27.9514 18.4315 27.8649C18.5177 27.7783 18.5662 27.6609 18.5662 27.5385L18.5662 25.2307L18.7206 25.2307C22.3823 25.2307 25 23.3237 25 20.0247C25 17.2517 23.1489 15.736 20.9816 15.52L20.9816 15.3575C22.7646 14.9108 24.0753 13.5593 24.0753 11.3145C24.0753 8.48621 21.9614 6.76929 18.7354 6.76929L18.5662 6.76929L18.5662 4.46155C18.5662 4.33911 18.5177 4.22168 18.4315 4.13513C18.3453 4.04858 18.2285 4 18.1066 4L16.2684 4C16.1465 4 16.0297 4.04858 15.9435 4.13513C15.8573 4.22168 15.8088 4.33911 15.8088 4.46155L15.8088 6.76929L14.7555 6.76929L14.7555 4.46155C14.7555 4.33911 14.7072 4.22168 14.621 4.13513C14.5347 4.04858 14.4178 4 14.2959 4L12.5919 4C12.47 4 12.3531 4.04858 12.267 4.13513C12.1808 4.22168 12.1323 4.33911 12.1323 4.46155L12.1323 6.76929L8.45959 6.78955C8.33765 6.78955 8.22083 6.83813 8.13464 6.92468C8.04846 7.01123 8 7.12866 8 7.2511L8 9.0769C8 9.32983 8.20215 9.53845 8.45593 9.53845L9.84375 9.52917C10.2078 9.53162 10.5562 9.67859 10.8127 9.93799C11.0692 10.1974 11.2133 10.5482 11.2133 10.9138L11.2133 21.0769C11.2133 21.4441 11.068 21.7964 10.8094 22.056C10.5509 22.3157 10.2002 22.4615 9.83459 22.4615L8.45959 22.4818C8.33765 22.4818 8.22083 22.5305 8.13464 22.6171C8.04846 22.7036 8 22.8209 8 22.9434L8 24.7896C8 25.0443 8.20593 25.2511 8.45959 25.2511L12.1323 25.2307ZM14.7555 9.5144L17.9154 9.5144C19.5809 9.5144 20.5588 10.4338 20.5588 11.9366C20.5588 13.5446 19.5018 14.451 17.1084 14.451L14.7555 14.451L14.7555 9.5144ZM14.7555 16.9933L18.1378 16.9933C20.2279 16.9933 21.3658 18.064 21.3658 19.8068C21.3658 21.5662 20.2151 22.4836 17.3989 22.4836L14.7555 22.4836L14.7555 16.9951L14.7555 16.9933Z" fill="#ABB2BF" fill-opacity="1.000000" fill-rule="nonzero"/>
  </symbol>

  <symbol id="play" viewBox="0 0 32 32">
          <path d="M23.192 17.3939L10.4659 24.778C9.38599 25.4039 8 24.646 8 23.3839L8 8.61597C8 7.35596 9.38403 6.59595 10.4659 7.224L23.192 14.6079C23.4376 14.7482 23.6418 14.9509 23.7839 15.1956C23.926 15.4402 24.0007 15.718 24.0007 16.001C24.0007 16.2838 23.926 16.5618 23.7839 16.8064C23.6418 17.051 23.4376 17.2537 23.192 17.3939Z" fill="#ABB2BF" fill-opacity="1.000000" fill-rule="nonzero"/>
  </symbol>

  <symbol id="calendar" viewBox="0 0 32 32">
          <path d="M10.375 6C10.5408 6 10.6997 6.0658 10.8169 6.18311C10.9342 6.30029 11 6.45923 11 6.625L11 7.25L21 7.25L21 6.625C21 6.45923 21.0658 6.30029 21.1831 6.18311C21.3003 6.0658 21.4592 6 21.625 6C21.7908 6 21.9497 6.0658 22.0669 6.18311C22.1842 6.30029 22.25 6.45923 22.25 6.625L22.25 7.25L23.5 7.25C24.1631 7.25 24.799 7.51343 25.2678 7.98218C25.7366 8.45105 26 9.08691 26 9.75L26 23.5C26 24.1631 25.7366 24.799 25.2678 25.2678C24.799 25.7366 24.1631 26 23.5 26L8.5 26C7.83691 26 7.20105 25.7366 6.73218 25.2678C6.26343 24.799 6 24.1631 6 23.5L6 12.25L26 12.25L26 11L6 11L6 9.75C6 9.08691 6.26343 8.45105 6.73218 7.98218C7.20105 7.51343 7.83691 7.25 8.5 7.25L9.75 7.25L9.75 6.625C9.75 6.45923 9.8158 6.30029 9.93311 6.18311C10.0503 6.0658 10.2092 6 10.375 6L10.375 6Z" fill="#ABB2BF" fill-opacity="1.000000" fill-rule="nonzero"/>
  </symbol>

</svg>
