<?xml version="1.0" standalone="no"?>
<!DOCTYPE svg PUBLIC "-//W3C//DTD SVG 20010904//EN">
<svg version="1.0" xmlns="http://www.w3.org/2000/svg"
 width="700.000000pt" height="700.000000pt" viewBox="0 0 700.000000 700.000000"
 preserveAspectRatio="xMidYMid meet">
<g transform="translate(0.000000,700.000000) scale(0.100000,-0.100000)"
fill="#000000" stroke="none">
<path d="M3500 6125 l0 -875 -1750 0 -1750 0 0 -2625 0 -2625 1750 0 1750 0 0
875 0 875 1750 0 1750 0 0 2625 0 2625 -1750 0 -1750 0 0 -875z m1750 -1750
l0 -875 -875 0 -875 0 0 -875 0 -875 -875 0 -875 0 0 875 0 875 875 0 875 0 0
875 0 875 875 0 875 0 0 -875z"/>
</g>
</svg>
