<svg width="84" height="84" viewBox="0 0 84 84" fill="none" xmlns="http://www.w3.org/2000/svg">
    <circle cx="22.000000" cy="2.000000" r="2.000000" fill="#ABB2BF" fill-opacity="1.000000"/>
    <circle cx="2.000000" cy="2.000000" r="2.000000" fill="#ABB2BF" fill-opacity="1.000000"/>
    <circle cx="42.000000" cy="2.000000" r="2.000000" fill="#ABB2BF" fill-opacity="1.000000"/>
    <circle cx="62.000000" cy="2.000000" r="2.000000" fill="#ABB2BF" fill-opacity="1.000000"/>
    <circle cx="82.000000" cy="2.000000" r="2.000000" fill="#ABB2BF" fill-opacity="1.000000"/>
    <circle cx="2.000000" cy="22.000000" r="2.000000" fill="#ABB2BF" fill-opacity="1.000000"/>
    <circle cx="22.000000" cy="22.000000" r="2.000000" fill="#ABB2BF" fill-opacity="1.000000"/>
    <circle cx="42.000000" cy="22.000000" r="2.000000" fill="#ABB2BF" fill-opacity="1.000000"/>
    <circle cx="62.000000" cy="22.000000" r="2.000000" fill="#ABB2BF" fill-opacity="1.000000"/>
    <circle cx="82.000000" cy="22.000000" r="2.000000" fill="#ABB2BF" fill-opacity="1.000000"/>
    <circle cx="2.000000" cy="42.000000" r="2.000000" fill="#ABB2BF" fill-opacity="1.000000"/>
    <circle cx="22.000000" cy="42.000000" r="2.000000" fill="#ABB2BF" fill-opacity="1.000000"/>
    <circle cx="42.000000" cy="42.000000" r="2.000000" fill="#ABB2BF" fill-opacity="1.000000"/>
    <circle cx="62.000000" cy="42.000000" r="2.000000" fill="#ABB2BF" fill-opacity="1.000000"/>
    <circle cx="82.000000" cy="42.000000" r="2.000000" fill="#ABB2BF" fill-opacity="1.000000"/>
    <circle cx="2.000000" cy="62.000000" r="2.000000" fill="#ABB2BF" fill-opacity="1.000000"/>
    <circle cx="22.000000" cy="62.000000" r="2.000000" fill="#ABB2BF" fill-opacity="1.000000"/>
    <circle cx="42.000000" cy="62.000000" r="2.000000" fill="#ABB2BF" fill-opacity="1.000000"/>
    <circle cx="62.000000" cy="62.000000" r="2.000000" fill="#ABB2BF" fill-opacity="1.000000"/>
    <circle cx="82.000000" cy="62.000000" r="2.000000" fill="#ABB2BF" fill-opacity="1.000000"/>
    <circle cx="2.000000" cy="82.000000" r="2.000000" fill="#ABB2BF" fill-opacity="1.000000"/>
    <circle cx="22.000000" cy="82.000000" r="2.000000" fill="#ABB2BF" fill-opacity="1.000000"/>
    <circle cx="42.000000" cy="82.000000" r="2.000000" fill="#ABB2BF" fill-opacity="1.000000"/>
    <circle cx="62.000000" cy="82.000000" r="2.000000" fill="#ABB2BF" fill-opacity="1.000000"/>
    <circle cx="82.000000" cy="82.000000" r="2.000000" fill="#ABB2BF" fill-opacity="1.000000"/>
</svg>
